<?xml version="1.0" encoding="UTF-8"?>
<!DOCTYPE svg PUBLIC "-//W3C//DTD SVG 1.1//EN" "http://www.w3.org/Graphics/SVG/1.1/DTD/svg11.dtd">
<!-- Creator: CorelDRAW X8 -->
<svg xmlns="http://www.w3.org/2000/svg" xml:space="preserve" width="24px" height="24px" version="1.1" style="shape-rendering:geometricPrecision; text-rendering:geometricPrecision; image-rendering:optimizeQuality; fill-rule:evenodd; clip-rule:evenodd"
viewBox="0 0 1378 1378"
 xmlns:xlink="http://www.w3.org/1999/xlink">
 <defs>
  <style type="text/css">
   <![CDATA[
    .fil0 {fill:#999999}
    .fil1 {fill:white}
   ]]>
  </style>
 </defs>
 <g id="Layer_x0020_1">
  <metadata id="CorelCorpID_0Corel-Layer"/>
  <g id="_2234977223952">
   <path class="fil0" d="M689 0c380,0 689,308 689,689 0,380 -309,689 -689,689 -381,0 -689,-309 -689,-689 0,-381 308,-689 689,-689z"/>
   <path class="fil1" d="M980 323c54,55 87,130 87,213 0,82 -33,157 -87,212l75 61c67,-72 108,-168 108,-274 0,-105 -41,-201 -108,-273l-75 61zm-332 254c-1,2 -1,4 -2,5l-188 578c-8,23 5,48 28,55l0 0c23,8 47,-5 55,-28l10 -32 254 -66 32 98c7,23 32,36 55,28l0 0c23,-7 35,-32 28,-55l-189 -578c0,-1 -1,-3 -2,-5 11,-10 18,-25 18,-42 0,-32 -26,-58 -58,-58 -32,0 -59,26 -59,58 0,17 7,32 18,42zm-65 480l37 -112 121 71 -158 41zm64 -196l42 -128 61 187 -103 -59zm258 -477c41,38 66,92 66,151 0,60 -25,114 -66,152l-76 -61c28,-21 46,-53 46,-91 0,-37 -18,-69 -46,-90l76 -61zm-508 364c-53,-55 -86,-130 -86,-212 0,-83 33,-158 86,-213l-75 -61c-67,72 -108,168 -108,273 0,106 41,202 108,274l75 -61zm75 -61c-40,-38 -65,-92 -65,-152 0,-59 25,-113 65,-151l76 61c-27,21 -45,53 -45,90 0,38 18,70 45,91l-76 61z"/>
  </g>
 </g>
</svg>
