<?xml version="1.0" encoding="UTF-8"?>
<!DOCTYPE svg PUBLIC "-//W3C//DTD SVG 1.1//EN" "http://www.w3.org/Graphics/SVG/1.1/DTD/svg11.dtd">
<!-- Creator: CorelDRAW X8 -->
<svg xmlns="http://www.w3.org/2000/svg" xml:space="preserve" width="24px" height="24px" version="1.1" style="shape-rendering:geometricPrecision; text-rendering:geometricPrecision; image-rendering:optimizeQuality; fill-rule:evenodd; clip-rule:evenodd"
viewBox="0 0 1714 1714"
 xmlns:xlink="http://www.w3.org/1999/xlink">
 <defs>
  <style type="text/css">
   <![CDATA[
    .fil0 {fill:#999999}
    .fil1 {fill:white}
   ]]>
  </style>
 </defs>
 <g id="Layer_x0020_1">
  <metadata id="CorelCorpID_0Corel-Layer"/>
  <g id="_2234977226896">
   <path class="fil0" d="M857 0c473,0 857,384 857,857 0,473 -384,857 -857,857 -473,0 -857,-384 -857,-857 0,-473 384,-857 857,-857z"/>
   <path class="fil1" d="M439 490l0 515 836 0 0 -515 -836 0zm-34 -98l904 0c35,0 64,29 64,64l0 583c0,35 -29,64 -64,64l-904 0c-35,0 -64,-29 -64,-64l0 -583c0,-35 29,-64 64,-64zm362 780l180 0 0 55 81 0c26,0 48,21 48,48l0 0c0,26 -22,47 -48,47l-342 0c-26,0 -48,-21 -48,-47l0 0c0,-27 22,-48 48,-48l81 0 0 -55z"/>
  </g>
 </g>
</svg>
