<?xml version="1.0" encoding="UTF-8"?>
<!DOCTYPE svg PUBLIC "-//W3C//DTD SVG 1.1//EN" "http://www.w3.org/Graphics/SVG/1.1/DTD/svg11.dtd">
<!-- Creator: CorelDRAW X8 -->
<svg xmlns="http://www.w3.org/2000/svg" xml:space="preserve" width="20px" height="20px" version="1.1" style="shape-rendering:geometricPrecision; text-rendering:geometricPrecision; image-rendering:optimizeQuality; fill-rule:evenodd; clip-rule:evenodd"
viewBox="0 0 552 550"
 xmlns:xlink="http://www.w3.org/1999/xlink">
 <defs>
  <style type="text/css">
   <![CDATA[
    .fil0 {fill:#2EA6E3}
   ]]>
  </style>
 </defs>
 <g id="Layer_x0020_1">
  <metadata id="CorelCorpID_0Corel-Layer"/>
  <path class="fil0" d="M276 550c-152,0 -276,-123 -276,-276 0,-87 41,-164 104,-215 12,-10 32,-8 44,8 5,7 3,28 -9,39 -48,40 -80,100 -80,168 0,120 97,218 217,218 120,0 217,-98 217,-218 0,-68 -32,-128 -80,-168 -13,-11 -14,-32 -9,-39 12,-16 32,-18 44,-8 63,51 104,128 104,215 0,153 -124,276 -276,276zm0 -550l0 0c20,0 37,17 37,37l0 278c0,21 -17,37 -37,37l0 0c-20,0 -37,-16 -37,-37l0 -278c0,-20 17,-37 37,-37z"/>
 </g>
</svg>
