<?xml version="1.0" encoding="UTF-8"?>
<!DOCTYPE svg PUBLIC "-//W3C//DTD SVG 1.1//EN" "http://www.w3.org/Graphics/SVG/1.1/DTD/svg11.dtd">
<!-- Creator: CorelDRAW X8 -->
<svg xmlns="http://www.w3.org/2000/svg" xml:space="preserve" width="24px" height="24px" version="1.1" style="shape-rendering:geometricPrecision; text-rendering:geometricPrecision; image-rendering:optimizeQuality; fill-rule:evenodd; clip-rule:evenodd"
viewBox="0 0 985 985"
 xmlns:xlink="http://www.w3.org/1999/xlink">
 <defs>
  <style type="text/css">
   <![CDATA[
    .fil0 {fill:#FF6633}
    .fil1 {fill:white}
   ]]>
  </style>
 </defs>
 <g id="Layer_x0020_1">
  <metadata id="CorelCorpID_0Corel-Layer"/>
  <g id="_2234977226352">
   <path class="fil0" d="M493 0c272,0 492,221 492,493 0,272 -220,492 -492,492 -272,0 -493,-220 -493,-492 0,-272 221,-493 493,-493z"/>
   <path class="fil1" d="M740 387c-49,31 -137,52 -237,52 -105,0 -196,-23 -244,-56l0 -71c89,33 165,35 244,22l-5 0c-134,0 -243,-29 -243,-64 0,-36 109,-65 243,-65 134,0 242,29 242,65 0,1 0,3 0,4l0 0 0 113zm0 143c-49,32 -137,52 -237,52 -105,0 -196,-22 -244,-56l0 -108 3 -2c49,32 138,54 241,54 100,0 188,-21 237,-52l0 112zm0 144c-49,31 -137,52 -237,52 -105,0 -196,-22 -244,-56l0 -108 3 -2c49,32 138,54 241,54 100,0 188,-21 237,-52l0 112z"/>
  </g>
 </g>
</svg>
